# xmcd
#
# Track frame offsets:
#	150
#	14595
#	24032
#	34980
#	46160
#	55145
#	64535
#	76020
#	86695
#	98762
#	109765
#	123470
#	133137
#	153470
#
# Disc length: 2188 seconds
#
# Revision: 4
# Processed by: cddbd v1.5.1PL2 Copyright (c) Steve Scherf et al.
# Submitted via: EasyCDDAExtractor 6.2.0.3
#
DISCID=a9088a0e
DTITLE=Various Artist - Country's Greatest Hits CD1
DYEAR=1991
DGENRE=Country
TTITLE0=Loretta Lynn - Coal Miner's Daughter
TTITLE1=Charley Pride - Kiss An Angel Good Morning
TTITLE2=Patsy Cline - I Can't Forget
TTITLE3=Ned Miller - Do What You Do Well
TTITLE4=Murray Kellum - Long Tall Texan
TTITLE5=Jerry Lee Lewis - One Minute Past Eternity
TTITLE6=Dave Dudley - Six Days On The Road
TTITLE7=Leroy Van Dyke - Walk On By
TTITLE8=Jeannie C. Riley - Country Girl
TTITLE9=Patti Page - Go On Home
TTITLE10=Webb Pierce - Back Street Affair
TTITLE11=James O'Gwynn - Easy Money
TTITLE12=The Good Brothers - Fire Lane 13
TTITLE13=Conway Twitty - Born To Sing The Blues
EXTD=
EXTT0=
EXTT1=
EXTT2=
EXTT3=
EXTT4=
EXTT5=
EXTT6=
EXTT7=
EXTT8=
EXTT9=
EXTT10=
EXTT11=
EXTT12=
EXTT13=
PLAYORDER=
